<svg width="600" height="600" viewBox="0 0 600 600" fill="none" xmlns="http://www.w3.org/2000/svg"><g clip-path="url(#clip0_1892_955)"><path d="M583.547 219.154H359.009V98.057C359.009 89.3789 355.561 81.0561 349.425 74.9197C343.289 68.7833 334.966 65.3359 326.288 65.3359H89.643C80.9648 65.3359 72.6421 68.7833 66.5057 74.9197C60.3693 81.0561 56.9219 89.3789 56.9219 98.057V567.847C56.9219 576.525 60.3693 584.848 66.5057 590.984C72.6421 597.121 80.9648 600.568 89.643 600.568H329.062C336.992 600.549 344.591 597.386 350.192 591.772C355.792 586.157 358.938 578.551 358.938 570.621V452.54H583.547C587.3 452.542 591.007 451.712 594.401 450.11C597.796 448.509 600.794 446.176 603.179 443.279C606.966 438.704 609.021 432.942 608.984 427.004V244.591C608.984 237.844 606.304 231.374 601.534 226.604C596.763 221.834 590.293 219.154 583.547 219.154Z" fill="url(#paint0_linear_1892_955)"/><path d="M517.638 153.234H182.375C168.326 153.234 156.938 164.623 156.938 178.671V361.07C156.938 375.119 168.326 386.507 182.375 386.507H517.638C531.686 386.507 543.075 375.119 543.075 361.07V178.671C543.075 164.623 531.686 153.234 517.638 153.234Z" fill="#1464A5"/><path d="M517.647 386.507C524.389 386.504 530.855 383.824 535.624 379.058C540.393 374.291 543.076 367.827 543.084 361.085V178.671C543.084 171.925 540.404 165.455 535.633 160.685C530.863 155.914 524.393 153.234 517.647 153.234H410.649L286.664 386.507H517.647Z" fill="url(#paint1_linear_1892_955)"/><g style="mix-blend-mode:multiply" opacity="0.6"><path d="M543.075 187.586H156.938V226.296H543.075V187.586Z" fill="#043263"/></g><path d="M486.679 296.867H216.659C214.828 296.867 213.344 298.351 213.344 300.182V328.137C213.344 329.968 214.828 331.452 216.659 331.452H486.679C488.51 331.452 489.994 329.968 489.994 328.137V300.182C489.994 298.351 488.51 296.867 486.679 296.867Z" fill="white"/><path d="M260.382 -0.570312H23.7367C5.66537 -0.570312 -8.98438 14.0794 -8.98438 32.1508V501.869C-8.98438 519.941 5.66537 534.591 23.7367 534.591H260.382C278.453 534.591 293.103 519.941 293.103 501.869V32.1508C293.103 14.0794 278.453 -0.570312 260.382 -0.570312Z" fill="#2DCCCD"/><path d="M74.6875 534.666H263.161C271.091 534.647 278.69 531.484 284.291 525.87C289.892 520.256 293.037 512.649 293.037 504.719V119.891L74.6875 534.666Z" fill="url(#paint2_linear_1892_955)"/><path d="M258.886 64.0078H25.2289C22.8718 64.0078 20.9609 65.9186 20.9609 68.2758V117.03C20.9609 119.387 22.8718 121.298 25.2289 121.298H258.886C261.243 121.298 263.154 119.387 263.154 117.03V68.2758C263.154 65.9186 261.243 64.0078 258.886 64.0078Z" fill="#49A5E6"/><g opacity="0.5"><path d="M24.8889 64.5312C23.8513 64.5312 22.8561 64.9435 22.1224 65.6772C21.3887 66.4109 20.9766 67.4059 20.9766 68.4436V117.924C20.9803 118.959 21.3942 119.95 22.1275 120.681C22.8608 121.411 23.8537 121.822 24.8889 121.822H144.008L174.638 64.5312H24.8889Z" fill="url(#paint3_linear_1892_955)"/></g><path d="M83.1026 185.633H25.2289C22.8718 185.633 20.9609 187.544 20.9609 189.901V238.655C20.9609 241.012 22.8718 242.923 25.2289 242.923H83.1026C85.4597 242.923 87.3706 241.012 87.3706 238.655V189.901C87.3706 187.544 85.4597 185.633 83.1026 185.633Z" fill="#EAF9FA"/><path d="M170.993 185.633H113.12C110.762 185.633 108.852 187.544 108.852 189.901V238.655C108.852 241.012 110.762 242.923 113.12 242.923H170.993C173.35 242.923 175.261 241.012 175.261 238.655V189.901C175.261 187.544 173.35 185.633 170.993 185.633Z" fill="#EAF9FA"/><path d="M258.884 185.633H201.01C198.653 185.633 196.742 187.544 196.742 189.901V238.655C196.742 241.012 198.653 242.923 201.01 242.923H258.884C261.241 242.923 263.152 241.012 263.152 238.655V189.901C263.152 187.544 261.241 185.633 258.884 185.633Z" fill="#EAF9FA"/><path d="M83.1026 261.148H25.2289C22.8718 261.148 20.9609 263.059 20.9609 265.416V314.171C20.9609 316.528 22.8718 318.439 25.2289 318.439H83.1026C85.4597 318.439 87.3706 316.528 87.3706 314.171V265.416C87.3706 263.059 85.4597 261.148 83.1026 261.148Z" fill="#EAF9FA"/><path d="M170.993 261.148H113.12C110.762 261.148 108.852 263.059 108.852 265.416V314.171C108.852 316.528 110.762 318.439 113.12 318.439H170.993C173.35 318.439 175.261 316.528 175.261 314.171V265.416C175.261 263.059 173.35 261.148 170.993 261.148Z" fill="#EAF9FA"/><path d="M258.884 261.148H201.01C198.653 261.148 196.742 263.059 196.742 265.416V314.171C196.742 316.528 198.653 318.439 201.01 318.439H258.884C261.241 318.439 263.152 316.528 263.152 314.171V265.416C263.152 263.059 261.241 261.148 258.884 261.148Z" fill="#EAF9FA"/><path d="M83.1026 336.672H25.2289C22.8718 336.672 20.9609 338.583 20.9609 340.94V389.694C20.9609 392.051 22.8718 393.962 25.2289 393.962H83.1026C85.4597 393.962 87.3706 392.051 87.3706 389.694V340.94C87.3706 338.583 85.4597 336.672 83.1026 336.672Z" fill="#EAF9FA"/><path d="M170.993 336.672H113.12C110.762 336.672 108.852 338.583 108.852 340.94V389.694C108.852 392.051 110.762 393.962 113.12 393.962H170.993C173.35 393.962 175.261 392.051 175.261 389.694V340.94C175.261 338.583 173.35 336.672 170.993 336.672Z" fill="#EAF9FA"/><path d="M83.1026 412.203H25.2289C22.8718 412.203 20.9609 414.114 20.9609 416.471V465.226C20.9609 467.583 22.8718 469.494 25.2289 469.494H83.1026C85.4597 469.494 87.3706 467.583 87.3706 465.226V416.471C87.3706 414.114 85.4597 412.203 83.1026 412.203Z" fill="#EAF9FA"/><path d="M170.993 412.203H113.12C110.762 412.203 108.852 414.114 108.852 416.471V465.226C108.852 467.583 110.762 469.494 113.12 469.494H170.993C173.35 469.494 175.261 467.583 175.261 465.226V416.471C175.261 414.114 173.35 412.203 170.993 412.203Z" fill="#EAF9FA"/><path d="M256.65 336.672H203.244C199.653 336.672 196.742 339.583 196.742 343.173V462.99C196.742 466.58 199.653 469.491 203.244 469.491H256.65C260.241 469.491 263.152 466.58 263.152 462.99V343.173C263.152 339.583 260.241 336.672 256.65 336.672Z" fill="#F8CD50"/><path d="M203.244 336.672C201.521 336.676 199.869 337.362 198.651 338.58C197.432 339.799 196.746 341.45 196.742 343.173V427.836L247.958 336.672H203.244Z" fill="url(#paint4_linear_1892_955)"/></g><defs><linearGradient id="paint0_linear_1892_955" x1="-46.6618" y1="-306.86" x2="432.048" y2="593.469" gradientUnits="userSpaceOnUse"><stop stop-color="#192647" stop-opacity="0.5" offset="0"/><stop offset="1" stop-color="#192647" stop-opacity="0"/></linearGradient><linearGradient id="paint1_linear_1892_955" x1="543.084" y1="269.864" x2="286.621" y2="269.864" gradientUnits="userSpaceOnUse"><stop stop-color="#043263" offset="0"/><stop offset="1" stop-color="#043263" stop-opacity="0"/></linearGradient><linearGradient id="paint2_linear_1892_955" x1="293.108" y1="327.243" x2="74.6164" y2="327.243" gradientUnits="userSpaceOnUse"><stop stop-color="#028484" stop-opacity="0.6" offset="0"/><stop offset="1" stop-color="#028484" stop-opacity="0"/></linearGradient><linearGradient id="paint3_linear_1892_955" x1="27.5635" y1="55.0564" x2="146.142" y2="118.109" gradientUnits="userSpaceOnUse"><stop stop-color="#EAF9FA" offset="0"/><stop offset="1" stop-color="#EAF9FA" stop-opacity="0.5"/></linearGradient><linearGradient id="paint4_linear_1892_955" x1="160.649" y1="349.462" x2="225.85" y2="384.132" gradientUnits="userSpaceOnUse"><stop stop-color="#EAF9FA" offset="0"/><stop offset="1" stop-color="#EAF9FA" stop-opacity="0.5"/></linearGradient><clipPath id="clip0_1892_955"><rect width="600" height="600" fill="white"/></clipPath></defs></svg>