<svg width="600" height="600" viewBox="0 0 600 600" fill="none" xmlns="http://www.w3.org/2000/svg"><g clip-path="url(#clip0_1570_2425)"><path d="M589.844 316.511L464.349 236.749C464.349 236.211 464.349 235.673 464.349 235.135C464.349 141.249 388.353 65.1189 294.467 64.9844C200.582 64.9844 124.451 140.98 124.317 234.866C124.317 286.113 147.452 334.67 187.266 367.086L85.4445 543.558L85.041 543.289C83.2924 542.348 81.1403 542.886 80.1988 544.634L66.0756 569.114C65.1341 570.863 65.6721 573.015 67.4207 573.957L70.9178 575.974L108.714 597.764L112.211 599.782C113.96 600.723 116.112 600.185 117.054 598.437L131.177 573.957C132.118 572.208 131.58 570.056 129.832 569.114L129.428 568.845L231.115 392.911C259.361 404.209 290.029 407.707 320.158 403.133V498.364H558.504V355.518L592.399 350.81L596.165 344.892C602.218 335.342 599.393 322.564 589.844 316.511ZM294.333 369.641C220.085 369.641 159.827 309.517 159.827 235.135C159.827 160.887 219.951 100.629 294.333 100.629C365.756 100.629 424.67 156.314 428.705 227.603L288.818 316.511C279.268 322.564 276.444 335.342 282.496 344.892L286.263 350.81L320.158 355.518V367.22C311.684 368.834 302.941 369.641 294.333 369.641Z" fill="url(#paint0_linear_1570_2425)"/><path d="M221.297 285.436L374.365 306.688L527.433 285.436L374.365 187.516L221.297 285.436Z" fill="#043263"/><path d="M255.195 262.974L374.368 187.516L493.541 262.974V433.124H255.195V262.974Z" fill="#49A5E6"/><path d="M412.842 212.539L493.546 262.979V433.13H288.289" fill="url(#paint1_linear_1570_2425)"/><path d="M352.981 318.523H395.754C400.73 318.523 404.631 322.559 404.631 327.401V432.988H343.969V327.401C343.969 322.559 348.004 318.523 352.981 318.523Z" fill="#2DCCCD"/><path d="M372.893 156.442L223.86 251.134C214.31 257.187 211.485 269.965 217.538 279.515L221.304 285.433L374.372 188.185L527.44 285.568L531.207 279.65C537.259 270.1 534.435 257.322 524.885 251.269L375.852 156.576C374.91 155.769 373.834 155.769 372.893 156.442Z" fill="#004481"/><path d="M129.434 288.398L4.20886 505.357C3.13281 507.375 3.80534 509.93 5.68842 511.007L43.6192 532.931C44.2918 533.335 44.9643 533.469 45.6368 533.469C47.1164 533.469 48.4614 532.662 49.2685 531.451L174.225 315.031L174.494 314.493L129.434 288.398Z" fill="#004481"/><path d="M1.11469 503.737L15.2379 479.257C16.1794 477.508 18.3315 476.97 20.0801 477.912L64.8707 503.737C66.6193 504.678 67.1573 506.83 66.2158 508.579L52.0926 533.194C51.1511 534.942 48.999 535.48 47.2504 534.539L2.45975 508.714C0.711169 507.637 0.173144 505.351 1.11469 503.737Z" fill="#2DCCCD"/><path d="M229.375 339.782C135.624 339.782 59.3594 263.517 59.3594 169.766C59.3594 76.0151 135.624 -0.25 229.375 -0.25C323.126 -0.25 399.392 76.0151 399.392 169.766C399.392 263.517 323.126 339.782 229.375 339.782ZM229.375 35.3942C155.262 35.3942 94.8691 95.6531 94.8691 169.901C94.8691 244.148 155.128 304.407 229.375 304.407C303.623 304.407 363.882 244.148 363.882 169.901C363.882 95.6531 303.623 35.3942 229.375 35.3942Z" fill="#1464A5"/><path d="M229.366 35.3906C155.253 35.3906 94.8594 95.6495 94.8594 169.897C94.8594 244.145 155.118 304.403 229.366 304.403C303.613 304.403 363.872 244.145 363.872 169.897C363.872 95.6495 303.613 35.3906 229.366 35.3906Z" fill="#D4EDFC"/><mask id="mask0_1570_2425" style="mask-type:luminance" maskUnits="userSpaceOnUse" x="94" y="34" width="271" height="271"><path d="M229.379 304.679C303.887 304.679 364.289 244.278 364.289 169.769C364.289 95.2606 303.887 34.8594 229.379 34.8594C154.87 34.8594 94.4688 95.2606 94.4688 169.769C94.4688 244.278 154.87 304.679 229.379 304.679Z" fill="white"/></mask><g mask="url(#mask0_1570_2425)"><path d="M153.789 256.26L209.609 263.927V220.75L153.789 256.26Z" fill="#043263"/><path d="M310.092 277.918L209.75 263.93V303.206C216.341 304.147 222.932 304.685 229.522 304.685C258.441 304.685 286.688 295.27 310.092 277.918Z" fill="#49A5E6"/><path d="M209.611 263.929L309.953 277.918C356.627 243.081 375.726 182.149 357.165 126.867L209.477 220.753V263.929H209.611Z" fill="#49A5E6"/><path d="M147.743 246.579L153.931 256.264L209.616 220.62V219.274L357.035 126.062C352.193 111.938 345.064 98.7567 335.783 87.0547L158.1 200.04C142.363 209.994 137.79 230.842 147.743 246.579Z" fill="#004481"/><path d="M209.609 220.609L153.789 256.254L209.609 220.744V220.609Z" fill="#004481"/><path d="M209.611 220.613L357.03 126.324C357.03 126.189 357.03 126.189 356.896 126.055L209.477 219.268V220.613H209.611Z" fill="#004481"/><path d="M209.617 220.609V220.878L357.305 126.993L357.171 126.32L209.617 220.609Z" fill="#004481"/></g><mask id="mask1_1570_2425" style="mask-type:luminance" maskUnits="userSpaceOnUse" x="95" y="36" width="269" height="268"><path d="M363.055 169.754C363.055 243.598 303.2 303.453 229.356 303.453C155.512 303.453 95.6562 243.598 95.6562 169.754C95.6562 95.91 155.512 36.0547 229.356 36.0547C303.2 36.0547 363.055 95.91 363.055 169.754Z" fill="white"/></mask><g mask="url(#mask1_1570_2425)"><path opacity="0.5" d="M229.37 36.0547C155.526 36.0547 95.6704 96.0445 95.8049 169.889C95.8049 217.504 121.227 261.487 162.386 285.43L296.085 53.8095C275.774 42.1075 252.774 36.0547 229.37 36.0547Z" fill="url(#paint2_linear_1570_2425)"/></g></g><defs><linearGradient id="paint0_linear_1570_2425" x1="155.031" y1="116.53" x2="402.248" y2="581.473" gradientUnits="userSpaceOnUse"><stop stop-color="#192647" stop-opacity="0.5" offset="0"/><stop offset="1" stop-color="#192647" stop-opacity="0"/></linearGradient><linearGradient id="paint1_linear_1570_2425" x1="493.532" y1="322.848" x2="288.262" y2="322.848" gradientUnits="userSpaceOnUse"><stop stop-color="#043263" stop-opacity="0.4" offset="0"/><stop offset="1" stop-color="#043263" stop-opacity="0"/></linearGradient><linearGradient id="paint2_linear_1570_2425" x1="120.173" y1="63.7812" x2="276.684" y2="220.293" gradientUnits="userSpaceOnUse"><stop stop-color="white" stop-opacity="0.5" offset="0"/><stop offset="1" stop-color="white" stop-opacity="0"/></linearGradient><clipPath id="clip0_1570_2425"><rect width="600" height="600" fill="white"/></clipPath></defs></svg>