<svg width="600" height="600" viewBox="0 0 600 600" fill="none" xmlns="http://www.w3.org/2000/svg"><g clip-path="url(#clip0_1676_807)"><path d="M530.812 212.977C518.917 175.256 495.595 142.23 463.978 118.439C397.457 68.8223 306.206 68.8223 239.685 118.439C192.259 153.813 164.398 209.534 164.398 268.699C164.398 275.585 164.868 282.629 165.651 289.516L165.807 290.768C167.998 309.55 174.103 328.333 181.929 347.272C191.32 369.967 251.424 480.47 348.31 596.295L351.753 600.052L355.197 596.295C459.126 472.801 512.969 367.15 521.577 347.272C529.716 328.489 535.508 309.55 537.699 290.768L537.856 289.516C538.638 282.629 538.951 275.585 539.108 268.699C539.264 249.76 536.447 230.977 530.812 212.977ZM351.91 364.645C298.38 364.645 255.024 321.289 255.024 267.76C255.024 214.23 298.38 170.873 351.91 170.873C405.439 170.873 448.796 214.23 448.796 267.76C448.639 321.289 405.283 364.645 351.91 364.645Z" fill="url(#paint0_linear_1676_807)"/><path d="M427.773 131.704C415.878 93.9826 392.556 60.9569 360.939 37.1658C294.418 -12.4511 203.167 -12.4511 136.646 37.1658C89.22 72.5394 61.3594 128.261 61.3594 187.269C61.3594 194.156 61.8289 201.199 62.6115 208.086L62.768 209.338C64.9593 228.12 71.0636 246.903 78.8896 265.842C88.2808 288.537 148.385 399.04 245.271 514.865L248.714 518.622L252.157 514.865C356.087 391.371 409.93 285.876 418.538 265.842C426.677 247.059 432.469 228.12 434.66 209.338L434.817 208.086C435.599 201.199 435.912 194.156 436.069 187.269C436.225 168.643 433.408 149.86 427.773 131.704ZM248.871 283.529C195.341 283.529 151.985 240.172 151.985 186.643C151.985 133.113 195.341 89.7566 248.871 89.7566C302.4 89.7566 345.757 133.113 345.757 186.643C345.6 240.172 302.244 283.529 248.871 283.529Z" fill="#2DCCCD"/><path d="M248.399 518.929L251.842 515.173C355.771 391.678 409.614 286.184 418.223 266.149C426.362 247.367 432.153 228.428 434.344 209.645L434.501 208.393C435.284 201.506 435.597 194.463 435.753 187.576C435.91 141.246 418.536 96.4813 387.388 62.0469L337.302 148.446C358.432 197.593 335.737 254.567 286.589 275.697C277.824 279.453 268.746 281.958 259.198 282.897L175.93 426.113C196.121 454.443 219.129 484.651 244.642 515.173L248.399 518.929Z" fill="url(#paint1_linear_1676_807)"/></g><defs><linearGradient id="paint0_linear_1676_807" x1="159.582" y1="-92.5357" x2="493.721" y2="535.893" gradientUnits="userSpaceOnUse"><stop stop-color="#192647" stop-opacity="0.5" offset="0"/><stop offset="1" stop-color="#192647" stop-opacity="0"/></linearGradient><linearGradient id="paint1_linear_1676_807" x1="609.96" y1="290.41" x2="129.788" y2="290.41" gradientUnits="userSpaceOnUse"><stop stop-color="#02A5A5" offset="0"/><stop offset="1" stop-color="#02A5A5" stop-opacity="0"/></linearGradient><clipPath id="clip0_1676_807"><rect width="600" height="600" fill="white"/></clipPath></defs></svg>