<svg width="600" height="600" viewBox="0 0 600 600" fill="none" xmlns="http://www.w3.org/2000/svg"><g clip-path="url(#clip0_1570_500)"><path opacity="0.25" fill-rule="evenodd" clip-rule="evenodd" d="M552.768 65.8576L109.345 464.268C109.019 464.583 108.777 464.975 108.641 465.408C108.505 465.841 108.479 466.301 108.566 466.747C108.652 467.192 108.849 467.609 109.137 467.959C109.426 468.309 109.797 468.582 110.218 468.753L251.991 519.546L294.482 555.671L316.838 542.775L477.042 600.138C477.412 600.272 477.806 600.321 478.198 600.283C478.589 600.245 478.966 600.12 479.303 599.918C479.64 599.716 479.928 599.441 480.145 599.113C480.362 598.786 480.504 598.414 480.559 598.025L557.144 68.216C557.181 67.6924 557.066 67.1692 556.813 66.7093C556.56 66.2494 556.18 65.8723 555.718 65.6232C555.256 65.3742 554.732 65.2639 554.208 65.3054C553.685 65.347 553.185 65.5388 552.768 65.8576Z" fill="url(#paint0_linear_1570_500)"/><path fill-rule="evenodd" clip-rule="evenodd" d="M487.104 0.305701L43.6811 398.716C43.3551 399.031 43.1132 399.423 42.9771 399.856C42.841 400.289 42.8151 400.749 42.9017 401.195C42.9884 401.64 43.1848 402.057 43.4733 402.407C43.7617 402.757 44.133 403.03 44.5535 403.201L191.521 455.834L228.859 490.119L251.215 477.223L411.419 534.586C411.789 534.72 412.183 534.769 412.574 534.731C412.965 534.693 413.343 534.568 413.68 534.366C414.017 534.164 414.304 533.889 414.522 533.561C414.739 533.234 414.88 532.862 414.936 532.473L491.521 2.66404C491.565 2.13338 491.453 1.60137 491.198 1.13369C490.944 0.666007 490.558 0.283121 490.088 0.0323055C489.618 -0.21851 489.085 -0.326273 488.555 -0.277689C488.025 -0.229106 487.52 -0.0262941 487.104 0.305701Z" fill="#1464A5"/><path fill-rule="evenodd" clip-rule="evenodd" d="M448.199 79.7266L228.859 490.119L251.216 477.223C251.216 477.223 448.335 79.7947 448.199 79.7266Z" fill="#043263"/><path opacity="0.25" fill-rule="evenodd" clip-rule="evenodd" d="M448.193 79.7266L228.854 490.119L191.516 455.835C191.516 455.835 448.057 79.6448 448.193 79.7266Z" fill="#043263"/></g><defs><linearGradient id="paint0_linear_1570_500" x1="280.182" y1="168.003" x2="519.124" y2="617.396" gradientUnits="userSpaceOnUse"><stop stop-color="#192647" offset="0"/><stop offset="1" stop-color="#192647" stop-opacity="0"/></linearGradient><clipPath id="clip0_1570_500"><rect width="600" height="600" fill="white"/></clipPath></defs></svg>